# xmcd
#
# Track frame offsets: 
#        150
#        20820
#        40287
#        59605
#        79037
#        93720
#        115765
#        137232
#        157000
#        171865
#        197315
#        217505
#        237097
#        255162
#
# Disc length: 3659 seconds
#
# Revision: 1
# Processed by: cddbd v1.5.2PL0 Copyright (c) Steve Scherf et al.
# Submitted via: ExactAudioCopy v1.0b3
#
DISCID=b50e490e
DTITLE=童安格 - 忘不了精選 (TO 1A1)
DYEAR=1990
DGENRE=Pop
TTITLE0=耶利亞女郎
TTITLE1=明天你是否依然愛我
TTITLE2=忘不了
TTITLE3=我曾經愛過 (給愛人)
TTITLE4=星月
TTITLE5=回首的夢
TTITLE6=夢開始的地方
TTITLE7=讓生命等候
TTITLE8=其實你不懂我的心
TTITLE9=等我一起入夢
TTITLE10=想妳
TTITLE11=柔情
TTITLE12=不要分離
TTITLE13=夜歸漢 (給爹地)
EXTD=
EXTT0=
EXTT1=
EXTT2=
EXTT3=
EXTT4=
EXTT5=
EXTT6=
EXTT7=
EXTT8=
EXTT9=
EXTT10=
EXTT11=
EXTT12=
EXTT13=
PLAYORDER=
